<svg width="608" height="608" viewBox="0 0 608 608" fill="none" xmlns="http://www.w3.org/2000/svg">
<rect width="608" height="608" rx="304" fill="#1E1E1E"/>
<mask id="mask0_201_654" style="mask-type:luminance" maskUnits="userSpaceOnUse" x="133" y="153" width="342" height="303">
<path d="M133.387 153H474.611V455.972H133.387V153Z" fill="white"/>
</mask>
<g mask="url(#mask0_201_654)">
<mask id="mask1_201_654" style="mask-type:luminance" maskUnits="userSpaceOnUse" x="133" y="153" width="342" height="303">
<path d="M464.494 191.459V191.405C461.091 185.463 456.934 180.012 452.123 175.199C448.72 171.798 445.054 168.777 441.056 166.068C428.964 157.813 414.331 153 398.561 153C387.439 153 377.022 156.775 368.704 163.318C360.398 169.802 354.179 178.978 351.484 189.784L315.762 332.915C312.688 345.196 295.256 345.196 292.186 332.915L256.464 189.784C253.765 178.978 247.546 169.802 239.241 163.318C230.923 156.775 220.559 153 209.384 153C193.614 153 178.985 157.813 166.893 166.068C162.894 168.777 159.225 171.852 155.876 175.199C151.065 180.012 146.854 185.463 143.505 191.459C137.248 202.423 133.687 215.175 133.687 228.731C133.687 232.027 133.899 235.261 134.337 238.453C140.222 235.102 146.641 232.51 153.393 230.835C159.225 229.372 165.323 228.626 171.583 228.626C182.759 228.626 193.135 232.402 201.44 238.94C209.758 245.416 215.965 254.601 218.66 265.41L257.114 419.351C262.454 440.845 281.777 455.972 303.966 455.972C315.037 455.972 325.463 452.197 333.719 445.708C341.983 439.224 348.189 430.102 350.834 419.351L389.272 265.41C391.984 254.601 398.186 245.416 406.504 238.94C414.814 232.402 425.24 228.626 436.361 228.626C442.622 228.626 448.774 229.372 454.605 230.835C461.357 232.51 467.776 235.102 473.662 238.453C474.099 235.261 474.312 232.027 474.312 228.731C474.312 215.175 470.75 202.423 464.494 191.459Z" fill="white"/>
</mask>
<g mask="url(#mask1_201_654)">
<mask id="mask2_201_654" style="mask-type:luminance" maskUnits="userSpaceOnUse" x="133" y="153" width="342" height="303">
<path d="M464.494 191.459V191.405C461.091 185.463 456.934 180.012 452.123 175.199C448.72 171.798 445.054 168.777 441.056 166.068C428.964 157.813 414.331 153 398.561 153C387.439 153 377.022 156.775 368.704 163.318C360.398 169.802 354.179 178.978 351.484 189.784L315.762 332.915C312.688 345.196 295.256 345.196 292.186 332.915L256.464 189.784C253.765 178.978 247.546 169.802 239.241 163.318C230.923 156.775 220.559 153 209.384 153C193.614 153 178.985 157.813 166.893 166.068C162.894 168.777 159.225 171.852 155.876 175.199C151.065 180.012 146.854 185.463 143.505 191.459C137.248 202.423 133.687 215.175 133.687 228.731C133.687 232.027 133.899 235.261 134.337 238.453C140.222 235.102 146.641 232.51 153.393 230.835C159.225 229.372 165.323 228.626 171.583 228.626C182.759 228.626 193.135 232.402 201.44 238.94C209.758 245.416 215.965 254.601 218.66 265.41L257.114 419.351C262.454 440.845 281.777 455.972 303.966 455.972C315.037 455.972 325.463 452.197 333.719 445.708C341.983 439.224 348.189 430.102 350.834 419.351L389.272 265.41C391.984 254.601 398.186 245.416 406.504 238.94C414.814 232.402 425.24 228.626 436.361 228.626C442.622 228.626 448.774 229.372 454.605 230.835C461.357 232.51 467.776 235.102 473.662 238.453C474.099 235.261 474.312 232.027 474.312 228.731C474.312 215.175 470.75 202.423 464.494 191.459Z" fill="white"/>
</mask>
<g mask="url(#mask2_201_654)">
<path d="M133.687 455.972H474.312V153H133.687V455.972Z" fill="white"/>
</g>
</g>
</g>
<mask id="mask3_201_654" style="mask-type:luminance" maskUnits="userSpaceOnUse" x="95" y="238" width="96" height="143">
<path d="M95 238.344H190.969V380.229H95V238.344Z" fill="white"/>
</mask>
<g mask="url(#mask3_201_654)">
<mask id="mask4_201_654" style="mask-type:luminance" maskUnits="userSpaceOnUse" x="95" y="238" width="96" height="143">
<path d="M95.8956 304.348V304.519C96.0039 346.316 129.847 380.133 171.584 380.133H190.861L168.939 292.738C150.312 281.016 137.249 261.301 134.338 238.452C128.344 241.798 122.883 246.015 118.084 250.824C104.372 264.543 95.8956 283.449 95.8956 304.348Z" fill="white"/>
</mask>
<g mask="url(#mask4_201_654)">
<mask id="mask5_201_654" style="mask-type:luminance" maskUnits="userSpaceOnUse" x="95" y="238" width="96" height="143">
<path d="M95.8956 304.348V304.519C96.0039 346.316 129.847 380.133 171.584 380.133H190.861L168.939 292.738C150.312 281.016 137.249 261.301 134.338 238.452C128.344 241.798 122.883 246.015 118.084 250.824C104.372 264.543 95.8956 283.449 95.8956 304.348Z" fill="white"/>
</mask>
<g mask="url(#mask5_201_654)">
<path d="M95.8956 380.133H190.861V238.452H95.8956V380.133Z" fill="white"/>
</g>
</g>
</g>
<mask id="mask6_201_654" style="mask-type:luminance" maskUnits="userSpaceOnUse" x="417" y="238" width="96" height="143">
<path d="M417.031 238.344H513V380.229H417.031V238.344Z" fill="white"/>
</mask>
<g mask="url(#mask6_201_654)">
<mask id="mask7_201_654" style="mask-type:luminance" maskUnits="userSpaceOnUse" x="417" y="238" width="96" height="143">
<path d="M473.662 238.452C470.751 261.301 457.688 280.907 439.169 292.738L417.297 380.133H436.416C478.153 380.133 511.996 346.316 512.104 304.519V304.348C512.104 283.449 503.628 264.543 489.916 250.824C485.117 246.015 479.656 241.798 473.662 238.452Z" fill="white"/>
</mask>
<g mask="url(#mask7_201_654)">
<mask id="mask8_201_654" style="mask-type:luminance" maskUnits="userSpaceOnUse" x="417" y="238" width="96" height="143">
<path d="M473.662 238.452C470.751 261.301 457.688 280.907 439.169 292.738L417.297 380.133H436.416C478.153 380.133 511.996 346.316 512.104 304.519V304.348C512.104 283.449 503.628 264.543 489.916 250.824C485.117 246.015 479.656 241.798 473.662 238.452Z" fill="white"/>
</mask>
<g mask="url(#mask8_201_654)">
<path d="M417.297 380.133H512.104V238.452H417.297V380.133Z" fill="white"/>
</g>
</g>
</g>
</svg>
