<svg width="53" height="53" viewBox="0 0 53 53" fill="none" xmlns="http://www.w3.org/2000/svg">
<path d="M22.1501 19.808C21.5033 19.1612 20.4547 19.1612 19.8079 19.808C19.1611 20.4548 19.1611 21.5035 19.8079 22.1502L24.1575 26.5L19.8079 30.8498C19.1611 31.4964 19.1611 32.5451 19.8079 33.1919C20.4547 33.8387 21.5034 33.8387 22.1501 33.1919L26.4999 28.8424L30.8494 33.1919C31.4963 33.8387 32.545 33.8387 33.1918 33.1919C33.8386 32.5451 33.8386 31.4964 33.1918 30.8495L28.8421 26.5L33.1918 22.1502C33.8386 21.5035 33.8386 20.4548 33.1918 19.808C32.545 19.1612 31.4963 19.1612 30.8494 19.808L26.4999 24.1576L22.1501 19.808Z" fill="#FF0000"/>
<path fill-rule="evenodd" clip-rule="evenodd" d="M26.5001 2.76038C13.3891 2.76038 2.7605 13.389 2.7605 26.5C2.7605 39.6111 13.3891 50.2395 26.5001 50.2395C39.6112 50.2395 50.2397 39.6111 50.2397 26.5C50.2397 13.389 39.6112 2.76038 26.5001 2.76038ZM6.073 26.5C6.073 15.2184 15.2185 6.07288 26.5001 6.07288C37.7816 6.07288 46.9272 15.2184 46.9272 26.5C46.9272 37.7814 37.7816 46.927 26.5001 46.927C15.2185 46.927 6.073 37.7814 6.073 26.5Z" fill="#FF0000"/>
</svg>
