<svg width="131" height="131" viewBox="0 0 131 131" fill="none" xmlns="http://www.w3.org/2000/svg">
<g clip-path="url(#clip0_83_43)">
<path fill-rule="evenodd" clip-rule="evenodd" d="M65.674 114.744C78.293 114.623 90.7851 109.383 99.7688 100.485C110.439 89.9151 115.933 74.279 114.017 59.3512C110.732 33.7673 89.7514 16.4077 65.3588 16.4077C46.8284 16.4077 28.8159 28.0278 20.915 44.8777C14.8665 57.7771 14.8562 73.3518 20.915 86.2758C28.7586 103.007 46.4764 114.566 65.0436 114.744C65.2544 114.746 65.4632 114.746 65.674 114.744ZM65.0968 106.55C46.2492 106.368 28.6644 91.7573 25.1663 73.0263C22.7019 59.8199 27.3565 45.5307 37.0485 36.1519C48.3677 25.2011 66.155 21.531 80.9437 27.7392C94.1788 33.2944 104.082 46.1898 105.907 60.3971C107.471 72.574 103.111 85.3362 94.5452 94.1296C87.029 101.84 76.4917 106.444 65.6208 106.55C65.4468 106.55 65.2708 106.55 65.0968 106.55ZM39.7524 85.4877L59.6767 65.5634L39.7319 45.6187L45.4713 39.8813L65.4161 59.826L86.0445 39.1976L91.7921 44.9432L71.1637 65.5737L91.8331 86.243L86.0957 91.9824L65.4243 71.3111L45.5 91.2353L39.7524 85.4877Z" fill="url(#paint0_linear_83_43)"/>
</g>
<defs>
<linearGradient id="paint0_linear_83_43" x1="65.3842" y1="16.4077" x2="65.3842" y2="114.745" gradientUnits="userSpaceOnUse">
<stop stop-color="#FE4B29"/>
</linearGradient>
<clipPath id="clip0_83_43">
<rect width="131" height="131" fill="white"/>
</clipPath>
</defs>
</svg>
