<svg width="33" height="33" viewBox="0 0 33 33" fill="none" xmlns="http://www.w3.org/2000/svg">
<path fill-rule="evenodd" clip-rule="evenodd" d="M2.78809 15.4688C3.31544 8.35649 9.25298 2.75 16.5 2.75C15.3576 2.75 14.3404 3.25079 13.5036 4.01655C12.671 4.77847 11.9674 5.84207 11.3983 7.09933C10.8259 8.36401 10.3812 9.84318 10.0803 11.4484C9.83905 12.7352 9.69224 14.0917 9.6433 15.4688H2.78809ZM2.78809 17.5312H9.6433C9.69224 18.9083 9.83905 20.2649 10.0803 21.5516C10.3812 23.1568 10.8259 24.636 11.3983 25.9006C11.9674 27.1579 12.671 28.2215 13.5036 28.9835C14.3404 29.7492 15.3576 30.25 16.5 30.25C9.25298 30.25 3.31544 24.6436 2.78809 17.5312Z" fill="#0D6EFD"/>
<path d="M16.4999 4.66861C16.1218 4.66861 15.6334 4.8295 15.0652 5.34933C14.4931 5.87299 13.9201 6.69371 13.4141 7.81189C12.9113 8.92265 12.503 10.2636 12.2221 11.762C12.0008 12.9421 11.8636 14.193 11.8154 15.4688H21.1845C21.1363 14.193 20.999 12.9421 20.7778 11.762C20.4969 10.2636 20.0887 8.92267 19.5858 7.81189C19.0797 6.69371 18.5069 5.87299 17.9346 5.34933C17.3666 4.8295 16.878 4.66861 16.4999 4.66861Z" fill="#0D6EFD"/>
<path d="M12.2221 21.238C12.503 22.7364 12.9113 24.0773 13.4141 25.1881C13.9201 26.3064 14.4931 27.127 15.0652 27.6507C15.6332 28.1705 16.1218 28.3315 16.4999 28.3315C16.878 28.3315 17.3666 28.1705 17.9346 27.6507C18.5069 27.127 19.0797 26.3064 19.5858 25.1881C20.0887 24.0773 20.4969 22.7364 20.7778 21.238C20.999 20.0579 21.1363 18.807 21.1845 17.5312H11.8154C11.8636 18.807 12.0008 20.0579 12.2221 21.238Z" fill="#0D6EFD"/>
<path d="M16.5 2.75C17.6425 2.75 18.6597 3.25079 19.4964 4.01655C20.3291 4.77847 21.0327 5.84207 21.6017 7.09933C22.1741 8.36401 22.6188 9.84319 22.9197 11.4484C23.1611 12.7352 23.3078 14.0917 23.3567 15.4688H30.2119C29.6846 8.35649 23.7471 2.75 16.5 2.75Z" fill="#0D6EFD"/>
<path d="M22.9197 21.5516C22.6188 23.1568 22.1741 24.636 21.6017 25.9006C21.0327 27.1579 20.3291 28.2215 19.4964 28.9835C18.6597 29.7492 17.6425 30.25 16.5 30.25C23.7471 30.25 29.6846 24.6436 30.2119 17.5312H23.3567C23.3078 18.9083 23.1611 20.2649 22.9197 21.5516Z" fill="#0D6EFD"/>
</svg>
