<svg width="120" height="120" viewBox="0 0 120 120" fill="none" xmlns="http://www.w3.org/2000/svg">
<path fill-rule="evenodd" clip-rule="evenodd" d="M110 60C110 87.614 87.614 110 60 110C32.3857 110 10 87.614 10 60C10 32.3857 32.3857 10 60 10C87.614 10 110 32.3857 110 60ZM60 88.75C62.071 88.75 63.75 87.071 63.75 85V55C63.75 52.929 62.071 51.25 60 51.25C57.929 51.25 56.25 52.929 56.25 55V85C56.25 87.071 57.929 88.75 60 88.75ZM60 35C62.7615 35 65 37.2386 65 40C65 42.7614 62.7615 45 60 45C57.2385 45 55 42.7614 55 40C55 37.2386 57.2385 35 60 35Z" fill="url(#paint0_linear_83_110)"/>
<defs>
<linearGradient id="paint0_linear_83_110" x1="10" y1="60" x2="123.5" y2="60" gradientUnits="userSpaceOnUse">
<stop stop-color="#3729FE"/>
<stop offset="1" stop-color="#30F5FF"/>
</linearGradient>
</defs>
</svg>
