<svg width="29" height="29" viewBox="0 0 29 29" fill="none" xmlns="http://www.w3.org/2000/svg">
<path d="M19.3333 21.75V25.375H9.66666V21.75C9.66666 20.6245 9.92871 19.5144 10.4321 18.5077C10.9354 17.501 11.6662 16.6253 12.5667 15.95L14.5 14.5L16.4333 15.95C17.3337 16.6253 18.0646 17.501 18.5679 18.5077C19.0713 19.5144 19.3333 20.6245 19.3333 21.75Z" stroke="#FF0000" stroke-width="2" stroke-linecap="round" stroke-linejoin="round"/>
<path d="M16.4333 13.05L14.5 14.5L12.5667 13.05C11.6662 12.3747 10.9354 11.499 10.4321 10.4923C9.92871 9.4856 9.66666 8.37553 9.66666 7.25V3.625H19.3333V7.25C19.3333 8.37553 19.0713 9.4856 18.5679 10.4923C18.0646 11.499 17.3337 12.3747 16.4333 13.05Z" stroke="#FF0000" stroke-width="2" stroke-linecap="round" stroke-linejoin="round"/>
<path d="M7.25 25.375H21.75M7.25 3.625H21.75" stroke="#FF0000" stroke-width="2" stroke-linecap="round" stroke-linejoin="round"/>
</svg>
