<svg width="30" height="30" viewBox="0 0 30 30" fill="none" xmlns="http://www.w3.org/2000/svg">
<path d="M26.3963 9.10687H25.0981V17.1432H26.3963C27.2774 17.1432 27.9909 16.4292 27.9909 15.5487V10.7019C27.9909 9.8209 27.2773 9.10687 26.3963 9.10687Z" fill="#28A745"/>
<path d="M25.7136 0H23.9733H4.28682C3.02881 0 2.00928 1.01994 2.00928 2.27754V27.722C2.00928 28.9801 3.02875 30 4.28682 30H21.6954C22.9534 30 23.9733 28.9801 23.9733 27.722V8.0359H26.3965C27.2775 8.0359 27.9911 7.32229 27.9911 6.44174V2.27754C27.9911 1.01994 26.9712 0 25.7136 0ZM9.48602 12.1341C9.48602 10.0322 11.1894 8.32852 13.2916 8.32852C15.3929 8.32852 17.0963 10.0323 17.0963 12.1341V13.0455C17.0963 15.1469 15.3929 16.8503 13.2916 16.8503C11.1894 16.8503 9.48602 15.1469 9.48602 13.0455V12.1341ZM17.9443 22.8413C16.7134 22.8413 13.2916 22.8413 13.2916 22.8413C13.2916 22.8413 9.86904 22.8413 8.63816 22.8413C7.40734 22.8413 6.84941 21.0513 7.56133 19.7866C8.09746 18.8328 8.9759 17.7526 10.4068 17.1382C11.225 17.7103 12.219 18.0472 13.2916 18.0472C14.363 18.0472 15.3574 17.7103 16.1756 17.1382C17.6061 17.7526 18.485 18.8327 19.0215 19.7866C19.733 21.0513 19.1751 22.8413 17.9443 22.8413Z" fill="#28A745"/>
</svg>
