<svg width="98" height="98" viewBox="0 0 98 98" fill="none" xmlns="http://www.w3.org/2000/svg">
<path d="M49 0C61.9956 0 74.4589 5.16248 83.6482 14.3518C92.8375 23.541 98 36.0044 98 49C98 61.9956 92.8375 74.4589 83.6482 83.6482C74.4589 92.8375 61.9956 98 49 98C36.0044 98 23.541 92.8375 14.3518 83.6482C5.16248 74.4589 0 61.9956 0 49C0 36.0044 5.16248 23.541 14.3518 14.3518C23.541 5.16248 36.0044 0 49 0ZM42.896 58.667L32.011 47.775C31.6208 47.3848 31.1575 47.0752 30.6477 46.864C30.1378 46.6529 29.5914 46.5442 29.0395 46.5442C28.4876 46.5442 27.9412 46.6529 27.4313 46.864C26.9215 47.0752 26.4582 47.3848 26.068 47.775C25.2799 48.5631 24.8372 49.632 24.8372 50.7465C24.8372 51.861 25.2799 52.9299 26.068 53.718L39.928 67.578C40.3171 67.9702 40.78 68.2815 41.29 68.4939C41.8 68.7063 42.347 68.8156 42.8995 68.8156C43.452 68.8156 43.999 68.7063 44.509 68.4939C45.019 68.2815 45.4819 67.9702 45.871 67.578L74.571 38.871C74.9664 38.4824 75.281 38.0193 75.4966 37.5086C75.7122 36.9978 75.8245 36.4493 75.8271 35.8949C75.8297 35.3405 75.7225 34.7911 75.5116 34.2783C75.3008 33.7655 74.9905 33.2996 74.5987 32.9073C74.2069 32.515 73.7413 32.2042 73.2288 31.9928C72.7163 31.7814 72.167 31.6735 71.6126 31.6754C71.0581 31.6773 70.5096 31.789 69.9985 32.004C69.4875 32.219 69.0241 32.533 68.635 32.928L42.896 58.667Z" fill="url(#paint0_linear_83_104)"/>
<defs>
<linearGradient id="paint0_linear_83_104" x1="49" y1="0" x2="49" y2="98" gradientUnits="userSpaceOnUse">
<stop stop-color="#29FE37"/>
<stop offset="1" stop-color="#ACFF30"/>
</linearGradient>
</defs>
</svg>
