<svg width="22" height="22" viewBox="0 0 22 22" fill="none" xmlns="http://www.w3.org/2000/svg">
<g clip-path="url(#clip0_7_223)">
<path d="M11 0C4.9344 0 0 4.93466 0 11C0 17.0653 4.9344 22 11 22C17.0656 22 22 17.0653 22 11C22 4.93466 17.0656 0 11 0ZM16.1665 9.77543L11.0579 14.884C10.4975 15.4444 9.58951 15.4445 9.02902 14.884L6.0726 11.9276C5.51212 11.3673 5.51212 10.4589 6.0726 9.89867C6.63309 9.33818 7.54102 9.33818 8.1015 9.89867L10.0435 11.8404L14.1376 7.74645C14.6981 7.18597 15.606 7.18597 16.1665 7.74645C16.727 8.30676 16.727 9.21516 16.1665 9.77543Z" fill="#0015FF"/>
</g>
<defs>
<clipPath id="clip0_7_223">
<rect width="22" height="22" fill="white"/>
</clipPath>
</defs>
</svg>
