<svg width="42" height="37" viewBox="0 0 42 37" fill="none" xmlns="http://www.w3.org/2000/svg">
<path d="M7 9.25H35M28 9.25L27.5264 7.99827C27.0674 6.78526 26.8378 6.17875 26.4122 5.73034C26.0363 5.33437 25.5537 5.02787 25.0084 4.83895C24.3908 4.625 23.6652 4.625 22.2138 4.625H19.7862C18.3348 4.625 17.6092 4.625 16.9916 4.83895C16.4464 5.02787 15.9636 5.33437 15.5878 5.73034C15.1621 6.17875 14.9326 6.78526 14.4736 7.99827L14 9.25M31.5 9.25V24.975C31.5 27.5653 31.5 28.8603 30.9278 29.8497C30.4245 30.72 29.6214 31.4275 28.6335 31.8709C27.5103 32.375 26.0403 32.375 23.1 32.375H18.9C15.9597 32.375 14.4896 32.375 13.3666 31.8709C12.3787 31.4275 11.5756 30.72 11.0722 29.8497C10.5 28.8603 10.5 27.5653 10.5 24.975V9.25M24.5 15.4167V26.2083M17.5 15.4167V26.2083" stroke="#F5090D" stroke-width="3" stroke-linecap="round" stroke-linejoin="round"/>
</svg>
